<svg width="60" height="60" viewBox="0 0 60 60" fill="none" xmlns="http://www.w3.org/2000/svg">
<mask id="mask0_1224_7" style="mask-type:alpha" maskUnits="userSpaceOnUse" x="0" y="0" width="60" height="60">
<rect width="60" height="60" fill="#D9D9D9"/>
</mask>
<g mask="url(#mask0_1224_7)">
<path d="M11.6669 48.3331V11.6669V24.7294V22.9581V48.3331ZM17.375 32.0831H32.55C32.6417 31.3331 32.7985 30.611 33.0206 29.9169C33.2431 29.2223 33.5487 28.5556 33.9375 27.9169H17.375V32.0831ZM17.375 42.5419H28.8956C29.604 41.8752 30.3819 41.3231 31.2294 40.8856C32.0765 40.4481 32.9583 40.0765 33.875 39.7706C33.8196 39.5623 33.771 39.3367 33.7294 39.0938C33.6877 38.8508 33.6529 38.6113 33.625 38.375H17.375V42.5419ZM17.375 21.625H42.625V17.4581H17.375V21.625ZM11.6669 52.5C10.5419 52.5 9.56604 52.0869 8.73937 51.2606C7.91313 50.434 7.5 49.4581 7.5 48.3331V11.6669C7.5 10.5419 7.91313 9.56604 8.73937 8.73938C9.56604 7.91313 10.5419 7.5 11.6669 7.5H48.3331C49.4581 7.5 50.434 7.91313 51.2606 8.73938C52.0869 9.56604 52.5 10.5419 52.5 11.6669V31.4169C52.3054 30.0277 51.8402 28.7569 51.1044 27.6044C50.3681 26.4515 49.4444 25.4931 48.3331 24.7294V11.6669H11.6669V48.3331H26.2081C26.1944 48.479 26.184 48.6248 26.1769 48.7706C26.1702 48.9165 26.1669 49.0623 26.1669 49.2081V52.5H11.6669ZM42.6669 39.125C40.9869 39.125 39.5669 38.545 38.4069 37.385C37.2469 36.225 36.6669 34.805 36.6669 33.125C36.6669 31.445 37.2469 30.025 38.4069 28.865C39.5669 27.705 40.9869 27.125 42.6669 27.125C44.3469 27.125 45.7669 27.705 46.9269 28.865C48.0869 30.025 48.6669 31.445 48.6669 33.125C48.6669 34.805 48.0869 36.225 46.9269 37.385C45.7669 38.545 44.3469 39.125 42.6669 39.125ZM30.3331 52.5V49.2081C30.3331 48.1527 30.5727 47.2256 31.0519 46.4269C31.531 45.6285 32.2081 45.0279 33.0831 44.625C34.611 43.8887 36.1702 43.3435 37.7606 42.9894C39.3506 42.6352 40.986 42.4581 42.6669 42.4581C44.3473 42.4581 45.9827 42.6283 47.5731 42.9688C49.1631 43.3092 50.7221 43.8613 52.25 44.625C53.125 45 53.8021 45.5938 54.2812 46.4062C54.7604 47.2188 55 48.1527 55 49.2081V52.5H30.3331Z" fill="#1A73E8"/>
</g>
</svg>
